<svg xmlns="http://www.w3.org/2000/svg" class="sym" viewBox="0 0 128 128" aria-hidden="true" focusable="false"><defs><linearGradient id="fogobj-55-cloth" x1="0" y1="0" x2=".85" y2="1"><stop stop-color="#c8c5a4"/><stop offset=".47" stop-color="#8f9e8c"/><stop offset="1" stop-color="#536b67"/></linearGradient></defs><ellipse cx="66" cy="115" rx="41" ry="5" fill="#102b2c" opacity=".18"/><ellipse cx="66" cy="114" rx="29" ry="3" fill="#102b2c" opacity=".16"/><g class="sym-frame symbol-frame" stroke-linecap="round"><path d="M30 15l33 11 35-7-9 38 19 39-44-5-41 20 9-48Z" fill="url(#fogobj-55-cloth)" stroke="#293c3c" stroke-width="1.8" stroke-linejoin="round"/><path d="M38 43h50M33 65h60M47 31v65M73 31v58" fill="none" stroke="#8bada0" stroke-width="2" stroke-linecap="round" stroke-linejoin="round"/><path d="M54 49l17 21m0-21L54 70" fill="none" stroke="#efe0b9" stroke-width="3" stroke-linecap="round" stroke-linejoin="round"/><path d="M31 25l5 3m61 4-7 4M30 99l6-3" fill="none" stroke="#e4c897" stroke-width="2" stroke-linecap="round" stroke-linejoin="round"/></g><g class="sym-core symbol-core"></g></svg>