<svg xmlns="http://www.w3.org/2000/svg" class="sym" viewBox="0 0 128 128" aria-hidden="true" focusable="false"><defs><linearGradient id="fogobj-24-wood" x1="0" y1="0" x2=".85" y2="1"><stop stop-color="#e0b780"/><stop offset=".47" stop-color="#98714d"/><stop offset="1" stop-color="#513f31"/></linearGradient><linearGradient id="fogobj-24-cloth" x1="0" y1="0" x2=".85" y2="1"><stop stop-color="#c8c5a4"/><stop offset=".47" stop-color="#8f9e8c"/><stop offset="1" stop-color="#536b67"/></linearGradient><linearGradient id="fogobj-24-soil" x1="0" y1="0" x2=".85" y2="1"><stop stop-color="#8b8470"/><stop offset=".47" stop-color="#504e42"/><stop offset="1" stop-color="#2c3938"/></linearGradient></defs><ellipse cx="66" cy="115" rx="41" ry="5" fill="#102b2c" opacity=".18"/><ellipse cx="66" cy="114" rx="29" ry="3" fill="#102b2c" opacity=".16"/><g class="sym-frame symbol-frame" stroke-linecap="round"><rect x="39" y="28" width="48" height="66" rx="3" fill="url(#fogobj-24-cloth)" stroke="#354746" stroke-width="1.8"/><ellipse cx="64" cy="23" rx="38" ry="12" fill="url(#fogobj-24-wood)" stroke="#354746" stroke-width="1.5"/><ellipse cx="64" cy="100" rx="38" ry="12" fill="url(#fogobj-24-wood)" stroke="#354746" stroke-width="1.5"/><ellipse cx="64" cy="23" rx="9" ry="4" fill="url(#fogobj-24-soil)" stroke="#354746" stroke-width="1.5"/><path d="M40 34q22 9 46 0" fill="none" stroke="#d1b991" stroke-width="2" stroke-linecap="round" stroke-linejoin="round"/><path d="M40 39q22 9 46 0" fill="none" stroke="#d1b991" stroke-width="2" stroke-linecap="round" stroke-linejoin="round"/><path d="M40 44q22 9 46 0" fill="none" stroke="#d1b991" stroke-width="2" stroke-linecap="round" stroke-linejoin="round"/><path d="M40 49q22 9 46 0" fill="none" stroke="#d1b991" stroke-width="2" stroke-linecap="round" stroke-linejoin="round"/><path d="M40 54q22 9 46 0" fill="none" stroke="#d1b991" stroke-width="2" stroke-linecap="round" stroke-linejoin="round"/><path d="M40 59q22 9 46 0" fill="none" stroke="#d1b991" stroke-width="2" stroke-linecap="round" stroke-linejoin="round"/><path d="M40 64q22 9 46 0" fill="none" stroke="#d1b991" stroke-width="2" stroke-linecap="round" stroke-linejoin="round"/><path d="M40 69q22 9 46 0" fill="none" stroke="#d1b991" stroke-width="2" stroke-linecap="round" stroke-linejoin="round"/><path d="M40 74q22 9 46 0" fill="none" stroke="#d1b991" stroke-width="2" stroke-linecap="round" stroke-linejoin="round"/><path d="M40 79q22 9 46 0" fill="none" stroke="#d1b991" stroke-width="2" stroke-linecap="round" stroke-linejoin="round"/><path d="M84 80q28 12 22 30" fill="none" stroke="#e5cc9b" stroke-width="3" stroke-linecap="round" stroke-linejoin="round"/></g><g class="sym-core symbol-core"></g></svg>