<svg xmlns="http://www.w3.org/2000/svg" class="sym" viewBox="0 0 128 128" aria-hidden="true" focusable="false"><defs><linearGradient id="fogobj-29-glass" x1="0" y1="0" x2=".85" y2="1"><stop stop-color="#edf5da"/><stop offset=".47" stop-color="#9bc9b8"/><stop offset="1" stop-color="#466f75"/></linearGradient><linearGradient id="fogobj-29-paper" x1="0" y1="0" x2=".85" y2="1"><stop stop-color="#fff0c9"/><stop offset=".47" stop-color="#e1d3ac"/><stop offset="1" stop-color="#b4a181"/></linearGradient><linearGradient id="fogobj-29-cloth" x1="0" y1="0" x2=".85" y2="1"><stop stop-color="#c8c5a4"/><stop offset=".47" stop-color="#8f9e8c"/><stop offset="1" stop-color="#536b67"/></linearGradient></defs><ellipse cx="66" cy="115" rx="41" ry="5" fill="#102b2c" opacity=".18"/><ellipse cx="66" cy="114" rx="29" ry="3" fill="#102b2c" opacity=".16"/><g class="sym-frame symbol-frame" stroke-linecap="round"><path d="M21 19l33 8-17 84-30-12Z" fill="url(#fogobj-29-cloth)" stroke="#293c3c" stroke-width="1.8" stroke-linejoin="round"/><path d="M68 13l29 5 17 86-31 8Z" fill="url(#fogobj-29-glass)" stroke="#293c3c" stroke-width="1.8" stroke-linejoin="round"/><path d="M19 52l25 6m-30 18 25 6M78 40l24-3m-19 31 24-4" fill="none" stroke="#f0e4ba" stroke-width="5" stroke-linecap="round" stroke-linejoin="round"/><path d="M21 87l6-4 6 7-10 5ZM89 87l6-8 6 12-9 4Z" fill="url(#fogobj-29-paper)" stroke="#293c3c" stroke-width="1.8" stroke-linejoin="round"/></g><g class="sym-core symbol-core"></g></svg>