<svg xmlns="http://www.w3.org/2000/svg" class="sym" viewBox="0 0 128 128" aria-hidden="true" focusable="false"><defs><linearGradient id="fogobj-1-glass" x1="0" y1="0" x2=".85" y2="1"><stop stop-color="#edf5da"/><stop offset=".47" stop-color="#9bc9b8"/><stop offset="1" stop-color="#466f75"/></linearGradient><linearGradient id="fogobj-1-cloth" x1="0" y1="0" x2=".85" y2="1"><stop stop-color="#c8c5a4"/><stop offset=".47" stop-color="#8f9e8c"/><stop offset="1" stop-color="#536b67"/></linearGradient></defs><ellipse cx="66" cy="115" rx="41" ry="5" fill="#102b2c" opacity=".18"/><ellipse cx="66" cy="114" rx="29" ry="3" fill="#102b2c" opacity=".16"/><g class="sym-frame symbol-frame" stroke-linecap="round"><path d="M48 24l-8-12 22 6 25-5-9 14q-2 10 16 28 17 25 4 42-10 14-38 13-30 0-36-16-10-24 8-39 12-15 12-27Z" fill="url(#fogobj-1-cloth)" stroke="#293c3c" stroke-width="1.8" stroke-linejoin="round"/><path d="M41 61q22-12 43-3l12 24q-9 20-30 20-27 0-32-18Z" fill="url(#fogobj-1-glass)" stroke="#293c3c" stroke-width="1.8" stroke-linejoin="round"/><path d="M42 29q19 6 37-1M43 33q18 5 37-1" fill="none" stroke="#bca677" stroke-width="3" stroke-linecap="round" stroke-linejoin="round"/><path d="M46 45q-15 24-10 37M84 83q-2 17-19 18" fill="none" stroke="#c0dacd" stroke-width="2" stroke-linecap="round" stroke-linejoin="round"/><ellipse cx="51" cy="68" rx="3" ry="5" fill="url(#fogobj-1-glass)" stroke="#354746" stroke-width="1.5"/><ellipse cx="77" cy="91" rx="2" ry="3" fill="url(#fogobj-1-glass)" stroke="#354746" stroke-width="1.5"/><path d="M62 60q-15 11 0 17t0 17" fill="none" stroke="#e9f0d9" stroke-width="2" stroke-linecap="round" stroke-linejoin="round"/><path d="M34 93l3 4m2 2 3 2m3 1 3 1m4 1 3 1m4 0h3m4-1 3-1m4-2 3-2M44 30l-9 17m42-17 10 16" fill="none" stroke="#e6dec0" stroke-width="1.2" stroke-linecap="round" stroke-linejoin="round"/></g><g class="sym-core symbol-core"></g></svg>