<svg xmlns="http://www.w3.org/2000/svg" class="sym" viewBox="0 0 128 128" aria-hidden="true" focusable="false"><defs><linearGradient id="fogobj-14-copper" x1="0" y1="0" x2=".85" y2="1"><stop stop-color="#f3d59b"/><stop offset=".47" stop-color="#b17b4b"/><stop offset="1" stop-color="#513b2c"/></linearGradient><linearGradient id="fogobj-14-steel" x1="0" y1="0" x2=".85" y2="1"><stop stop-color="#e6e6c9"/><stop offset=".47" stop-color="#92a39b"/><stop offset="1" stop-color="#344d50"/></linearGradient><linearGradient id="fogobj-14-leaf" x1="0" y1="0" x2=".85" y2="1"><stop stop-color="#c5cf82"/><stop offset=".47" stop-color="#72965d"/><stop offset="1" stop-color="#345e4d"/></linearGradient><linearGradient id="fogobj-14-paper" x1="0" y1="0" x2=".85" y2="1"><stop stop-color="#fff0c9"/><stop offset=".47" stop-color="#e1d3ac"/><stop offset="1" stop-color="#b4a181"/></linearGradient><linearGradient id="fogobj-14-wood" x1="0" y1="0" x2=".85" y2="1"><stop stop-color="#e0b780"/><stop offset=".47" stop-color="#98714d"/><stop offset="1" stop-color="#513f31"/></linearGradient></defs><ellipse cx="66" cy="115" rx="41" ry="5" fill="#102b2c" opacity=".18"/><ellipse cx="66" cy="114" rx="29" ry="3" fill="#102b2c" opacity=".16"/><g class="sym-frame symbol-frame" stroke-linecap="round"><ellipse cx="71" cy="49" rx="31" ry="31" fill="url(#fogobj-14-copper)" stroke="#354746" stroke-width="1.5"/><ellipse cx="69" cy="46" rx="28" ry="28" fill="url(#fogobj-14-paper)" stroke="#354746" stroke-width="1.5"/><path d="M46 46h4M69 23v4M92 46h-4M69 46l12.88 -16.8" fill="none" stroke="#374f50" stroke-width="2.4" stroke-linecap="round" stroke-linejoin="round"/><ellipse cx="69" cy="46" rx="2" ry="2" fill="url(#fogobj-14-steel)" stroke="#354746" stroke-width="1.5"/><path d="M54 74h30v31H54Z" fill="url(#fogobj-14-copper)" stroke="#293c3c" stroke-width="1.8" stroke-linejoin="round"/><rect x="42" y="102" width="55" height="8" rx="3" fill="url(#fogobj-14-wood)" stroke="#354746" stroke-width="1.8"/><path d="M29 103V65" fill="none" stroke="#6b915e" stroke-width="3" stroke-linecap="round" stroke-linejoin="round"/><path d="M29 82Q5 79 17 56q19 4 12 26Z" fill="url(#fogobj-14-leaf)" stroke="#293c3c" stroke-width="1.8" stroke-linejoin="round"/><path d="M19 64l10 18" fill="none" stroke="#b9ce8c" stroke-width="1.3" stroke-linecap="round" stroke-linejoin="round"/><path d="M59 85h21m-21 7h21" fill="none" stroke="#edd5ab" stroke-width="2" stroke-linecap="round" stroke-linejoin="round"/></g><g class="sym-core symbol-core"></g></svg>