<svg xmlns="http://www.w3.org/2000/svg" class="sym" viewBox="0 0 128 128" aria-hidden="true" focusable="false"><defs><linearGradient id="fogobj-54-copper" x1="0" y1="0" x2=".85" y2="1"><stop stop-color="#f3d59b"/><stop offset=".47" stop-color="#b17b4b"/><stop offset="1" stop-color="#513b2c"/></linearGradient><linearGradient id="fogobj-54-steel" x1="0" y1="0" x2=".85" y2="1"><stop stop-color="#e6e6c9"/><stop offset=".47" stop-color="#92a39b"/><stop offset="1" stop-color="#344d50"/></linearGradient><linearGradient id="fogobj-54-enamel" x1="0" y1="0" x2=".85" y2="1"><stop stop-color="#8cafa0"/><stop offset=".47" stop-color="#3d6665"/><stop offset="1" stop-color="#203c42"/></linearGradient><linearGradient id="fogobj-54-glass" x1="0" y1="0" x2=".85" y2="1"><stop stop-color="#edf5da"/><stop offset=".47" stop-color="#9bc9b8"/><stop offset="1" stop-color="#466f75"/></linearGradient><linearGradient id="fogobj-54-violet" x1="0" y1="0" x2=".85" y2="1"><stop stop-color="#d9c5e1"/><stop offset=".47" stop-color="#9c86b1"/><stop offset="1" stop-color="#524b74"/></linearGradient><linearGradient id="fogobj-54-paper" x1="0" y1="0" x2=".85" y2="1"><stop stop-color="#fff0c9"/><stop offset=".47" stop-color="#e1d3ac"/><stop offset="1" stop-color="#b4a181"/></linearGradient></defs><ellipse cx="66" cy="115" rx="41" ry="5" fill="#102b2c" opacity=".18"/><ellipse cx="66" cy="114" rx="29" ry="3" fill="#102b2c" opacity=".16"/><g class="sym-frame symbol-frame" stroke-linecap="round"><path d="M17 28h50v23H51v39H17Z" fill="url(#fogobj-54-enamel)" stroke="#293c3c" stroke-width="1.8" stroke-linejoin="round"/><path d="M66 51h42v52H51V90h15Z" fill="url(#fogobj-54-copper)" stroke="#293c3c" stroke-width="1.8" stroke-linejoin="round"/><rect x="28" y="10" width="28" height="18" rx="3" fill="url(#fogobj-54-paper)" stroke="#354746" stroke-width="1.8"/><rect x="26" y="47" width="14" height="29" rx="3" fill="url(#fogobj-54-glass)" stroke="#354746" stroke-width="1.8"/><rect x="73" y="64" width="25" height="20" rx="3" fill="url(#fogobj-54-violet)" stroke="#354746" stroke-width="1.8"/><path d="M20 98h26M108 78h13" fill="none" stroke="#d5ba8d" stroke-width="5" stroke-linecap="round" stroke-linejoin="round"/><ellipse cx="23" cy="35" rx="2.5" ry="2.5" fill="url(#fogobj-54-steel)" stroke="#354746" stroke-width="1.5"/><path d="M22 35h2" fill="none" stroke="#45443a" stroke-width="1" stroke-linecap="round" stroke-linejoin="round"/><ellipse cx="100" cy="96" rx="2.5" ry="2.5" fill="url(#fogobj-54-steel)" stroke="#354746" stroke-width="1.5"/><path d="M99 96h2" fill="none" stroke="#45443a" stroke-width="1" stroke-linecap="round" stroke-linejoin="round"/></g><g class="sym-core symbol-core"></g></svg>