<svg xmlns="http://www.w3.org/2000/svg" class="sym" viewBox="0 0 128 128" aria-hidden="true" focusable="false"><defs><linearGradient id="fogobj-36-amber" x1="0" y1="0" x2=".85" y2="1"><stop stop-color="#ffe19a"/><stop offset=".47" stop-color="#d29c4f"/><stop offset="1" stop-color="#835a37"/></linearGradient><linearGradient id="fogobj-36-paper" x1="0" y1="0" x2=".85" y2="1"><stop stop-color="#fff0c9"/><stop offset=".47" stop-color="#e1d3ac"/><stop offset="1" stop-color="#b4a181"/></linearGradient><linearGradient id="fogobj-36-wax" x1="0" y1="0" x2=".85" y2="1"><stop stop-color="#f0a17d"/><stop offset=".47" stop-color="#ac594d"/><stop offset="1" stop-color="#633b3b"/></linearGradient></defs><ellipse cx="66" cy="115" rx="41" ry="5" fill="#102b2c" opacity=".18"/><ellipse cx="66" cy="114" rx="29" ry="3" fill="#102b2c" opacity=".16"/><g class="sym-frame symbol-frame" stroke-linecap="round"><path d="M14 30h101v23q-16 10 0 20v26H14V73q15-10 0-20Z" fill="url(#fogobj-36-paper)" stroke="#293c3c" stroke-width="1.8" stroke-linejoin="round"/><path d="M86 30h29v23q-16 10 0 20v26H86Z" fill="url(#fogobj-36-amber)" stroke="#293c3c" stroke-width="1.8" stroke-linejoin="round"/><path d="M29 46h43" fill="none" stroke="#8c8068" stroke-width="1.5" stroke-linecap="round" stroke-linejoin="round"/><path d="M29 53h36" fill="none" stroke="#8c8068" stroke-width="1.5" stroke-linecap="round" stroke-linejoin="round"/><path d="M29 60h43" fill="none" stroke="#8c8068" stroke-width="1.5" stroke-linecap="round" stroke-linejoin="round"/><path d="M29 67h36" fill="none" stroke="#8c8068" stroke-width="1.5" stroke-linecap="round" stroke-linejoin="round"/><path d="M29 74h43" fill="none" stroke="#8c8068" stroke-width="1.5" stroke-linecap="round" stroke-linejoin="round"/><path d="M85 36v7m0 6v7m0 6v7m0 6v7m0 6v6" fill="none" stroke="#816748" stroke-width="2" stroke-linecap="round" stroke-linejoin="round"/><ellipse cx="58" cy="78" rx="10" ry="10" fill="url(#fogobj-36-wax)" stroke="#354746" stroke-width="1.5"/></g><g class="sym-core symbol-core"></g></svg>