<svg xmlns="http://www.w3.org/2000/svg" class="sym" viewBox="0 0 128 128" aria-hidden="true" focusable="false"><defs><linearGradient id="fogobj-51-violet" x1="0" y1="0" x2=".85" y2="1"><stop stop-color="#d9c5e1"/><stop offset=".47" stop-color="#9c86b1"/><stop offset="1" stop-color="#524b74"/></linearGradient></defs><ellipse cx="66" cy="115" rx="41" ry="5" fill="#102b2c" opacity=".18"/><ellipse cx="66" cy="114" rx="29" ry="3" fill="#102b2c" opacity=".16"/><g class="sym-frame symbol-frame" stroke-linecap="round"><path d="M39 91l46-65q16-20 25-2 5 9-3 20L50 109q-19 18-28-2-5-9 2-20l50-70" fill="none" stroke="#2b343f" stroke-width="12" stroke-linecap="round" stroke-linejoin="round"/><path d="M39 91l46-65q16-20 25-2 5 9-3 20L50 109q-19 18-28-2-5-9 2-20l50-70" fill="none" stroke="#b0afb8" stroke-width="7" stroke-linecap="round" stroke-linejoin="round"/><path d="M40 89l45-64M23 100q3 16 16 12" fill="none" stroke="#f6e1c0" stroke-width="2" stroke-linecap="round" stroke-linejoin="round"/><path d="M82 62l14 7-12 16-13-8Z" fill="url(#fogobj-51-violet)" stroke="#293c3c" stroke-width="1.8" stroke-linejoin="round"/></g><g class="sym-core symbol-core"></g></svg>