<svg xmlns="http://www.w3.org/2000/svg" class="sym" viewBox="0 0 128 128" aria-hidden="true" focusable="false"><defs><linearGradient id="fogobj-45-copper" x1="0" y1="0" x2=".85" y2="1"><stop stop-color="#f3d59b"/><stop offset=".47" stop-color="#b17b4b"/><stop offset="1" stop-color="#513b2c"/></linearGradient><linearGradient id="fogobj-45-steel" x1="0" y1="0" x2=".85" y2="1"><stop stop-color="#e6e6c9"/><stop offset=".47" stop-color="#92a39b"/><stop offset="1" stop-color="#344d50"/></linearGradient><linearGradient id="fogobj-45-enamel" x1="0" y1="0" x2=".85" y2="1"><stop stop-color="#8cafa0"/><stop offset=".47" stop-color="#3d6665"/><stop offset="1" stop-color="#203c42"/></linearGradient><linearGradient id="fogobj-45-glass" x1="0" y1="0" x2=".85" y2="1"><stop stop-color="#edf5da"/><stop offset=".47" stop-color="#9bc9b8"/><stop offset="1" stop-color="#466f75"/></linearGradient><linearGradient id="fogobj-45-liquid" x1="0" y1="0" x2=".85" y2="1"><stop stop-color="#bce4c3"/><stop offset=".47" stop-color="#6eb4a4"/><stop offset="1" stop-color="#32696f"/></linearGradient><linearGradient id="fogobj-45-patina" x1="0" y1="0" x2=".85" y2="1"><stop stop-color="#b0d0ae"/><stop offset=".47" stop-color="#6a9b85"/><stop offset="1" stop-color="#3d6b67"/></linearGradient></defs><ellipse cx="66" cy="115" rx="41" ry="5" fill="#102b2c" opacity=".18"/><ellipse cx="66" cy="114" rx="29" ry="3" fill="#102b2c" opacity=".16"/><g class="sym-frame symbol-frame" stroke-linecap="round"><path d="M36 32h58l18 22v38l-18 17H36L18 92V54Z" fill="url(#fogobj-45-enamel)" stroke="#293c3c" stroke-width="1.8" stroke-linejoin="round"/><rect x="42" y="14" width="45" height="18" rx="3" fill="url(#fogobj-45-copper)" stroke="#354746" stroke-width="1.8"/><path d="M18 58h94v9H18Zm0 27h94v9H18Z" fill="url(#fogobj-45-copper)" stroke="#293c3c" stroke-width="1.8" stroke-linejoin="round"/><rect x="57" y="67" width="18" height="18" rx="3" fill="url(#fogobj-45-glass)" stroke="#354746" stroke-width="1.8"/><path d="M57 80h18v5H57Z" fill="url(#fogobj-45-liquid)" stroke="#293c3c" stroke-width="1.8" stroke-linejoin="round"/><path d="M28 43h60M36 108v8m58-8v8" fill="none" stroke="#d6c79c" stroke-width="4" stroke-linecap="round" stroke-linejoin="round"/><ellipse cx="26" cy="61" rx="2.5" ry="2.5" fill="url(#fogobj-45-steel)" stroke="#354746" stroke-width="1.5"/><path d="M25 61h2" fill="none" stroke="#45443a" stroke-width="1" stroke-linecap="round" stroke-linejoin="round"/><ellipse cx="102" cy="61" rx="2.5" ry="2.5" fill="url(#fogobj-45-steel)" stroke="#354746" stroke-width="1.5"/><path d="M101 61h2" fill="none" stroke="#45443a" stroke-width="1" stroke-linecap="round" stroke-linejoin="round"/><ellipse cx="26" cy="90" rx="2.5" ry="2.5" fill="url(#fogobj-45-steel)" stroke="#354746" stroke-width="1.5"/><path d="M25 90h2" fill="none" stroke="#45443a" stroke-width="1" stroke-linecap="round" stroke-linejoin="round"/><ellipse cx="102" cy="90" rx="2.5" ry="2.5" fill="url(#fogobj-45-steel)" stroke="#354746" stroke-width="1.5"/><path d="M101 90h2" fill="none" stroke="#45443a" stroke-width="1" stroke-linecap="round" stroke-linejoin="round"/><path d="M24 64h21m38 0h22M24 91h17m51 0h13M61 70v9" fill="none" stroke="#edcd99" stroke-width="1" stroke-linecap="round" stroke-linejoin="round"/><path d="M94 94l9 2-4 8-8-3Z" fill="url(#fogobj-45-patina)" stroke="#293c3c" stroke-width="1.8" stroke-linejoin="round"/></g><g class="sym-core symbol-core"></g></svg>