<svg xmlns="http://www.w3.org/2000/svg" class="sym" viewBox="0 0 128 128" aria-hidden="true" focusable="false"><defs><linearGradient id="fogobj-92-steel" x1="0" y1="0" x2=".85" y2="1"><stop stop-color="#e6e6c9"/><stop offset=".47" stop-color="#92a39b"/><stop offset="1" stop-color="#344d50"/></linearGradient><linearGradient id="fogobj-92-glass" x1="0" y1="0" x2=".85" y2="1"><stop stop-color="#edf5da"/><stop offset=".47" stop-color="#9bc9b8"/><stop offset="1" stop-color="#466f75"/></linearGradient><linearGradient id="fogobj-92-violet" x1="0" y1="0" x2=".85" y2="1"><stop stop-color="#d9c5e1"/><stop offset=".47" stop-color="#9c86b1"/><stop offset="1" stop-color="#524b74"/></linearGradient><linearGradient id="fogobj-92-soil" x1="0" y1="0" x2=".85" y2="1"><stop stop-color="#8b8470"/><stop offset=".47" stop-color="#504e42"/><stop offset="1" stop-color="#2c3938"/></linearGradient></defs><ellipse cx="66" cy="115" rx="41" ry="5" fill="#102b2c" opacity=".18"/><ellipse cx="66" cy="114" rx="29" ry="3" fill="#102b2c" opacity=".16"/><g class="sym-frame symbol-frame" stroke-linecap="round"><rect x="24" y="13" width="73" height="91" rx="3" fill="url(#fogobj-92-soil)" stroke="#354746" stroke-width="1.8"/><rect x="36" y="27" width="48" height="61" rx="3" fill="url(#fogobj-92-violet)" stroke="#354746" stroke-width="1.8"/><path d="M44 77V58l16 7 17-30 6 4-21 36-13-8v10Z" fill="url(#fogobj-92-glass)" stroke="#293c3c" stroke-width="1.8" stroke-linejoin="round"/><path d="M13 30v84h72M31 15v88M46 95h26" fill="none" stroke="#c7b89c" stroke-width="3" stroke-linecap="round" stroke-linejoin="round"/><ellipse cx="29" cy="20" rx="2.5" ry="2.5" fill="url(#fogobj-92-steel)" stroke="#354746" stroke-width="1.5"/><path d="M28 20h2" fill="none" stroke="#45443a" stroke-width="1" stroke-linecap="round" stroke-linejoin="round"/><ellipse cx="91" cy="98" rx="2.5" ry="2.5" fill="url(#fogobj-92-steel)" stroke="#354746" stroke-width="1.5"/><path d="M90 98h2" fill="none" stroke="#45443a" stroke-width="1" stroke-linecap="round" stroke-linejoin="round"/></g><g class="sym-core symbol-core"></g></svg>