<svg xmlns="http://www.w3.org/2000/svg" class="sym" viewBox="0 0 128 128" aria-hidden="true" focusable="false"><defs><linearGradient id="fogobj-93-enamel" x1="0" y1="0" x2=".85" y2="1"><stop stop-color="#8cafa0"/><stop offset=".47" stop-color="#3d6665"/><stop offset="1" stop-color="#203c42"/></linearGradient><linearGradient id="fogobj-93-amber" x1="0" y1="0" x2=".85" y2="1"><stop stop-color="#ffe19a"/><stop offset=".47" stop-color="#d29c4f"/><stop offset="1" stop-color="#835a37"/></linearGradient><linearGradient id="fogobj-93-paper" x1="0" y1="0" x2=".85" y2="1"><stop stop-color="#fff0c9"/><stop offset=".47" stop-color="#e1d3ac"/><stop offset="1" stop-color="#b4a181"/></linearGradient></defs><ellipse cx="66" cy="115" rx="41" ry="5" fill="#102b2c" opacity=".18"/><ellipse cx="66" cy="114" rx="29" ry="3" fill="#102b2c" opacity=".16"/><g class="sym-frame symbol-frame" stroke-linecap="round"><rect x="17" y="13" width="31" height="81" rx="3" fill="url(#fogobj-93-paper)" stroke="#354746" stroke-width="1.8"/><rect x="48" y="29" width="31" height="77" rx="3" fill="url(#fogobj-93-amber)" stroke="#354746" stroke-width="1.8"/><rect x="79" y="45" width="31" height="70" rx="3" fill="url(#fogobj-93-enamel)" stroke="#354746" stroke-width="1.8"/><path d="M24 27h17" fill="none" stroke="#8c8068" stroke-width="1.5" stroke-linecap="round" stroke-linejoin="round"/><path d="M24 34h10" fill="none" stroke="#8c8068" stroke-width="1.5" stroke-linecap="round" stroke-linejoin="round"/><path d="M24 41h17" fill="none" stroke="#8c8068" stroke-width="1.5" stroke-linecap="round" stroke-linejoin="round"/><path d="M55 43h17" fill="none" stroke="#8c8068" stroke-width="1.5" stroke-linecap="round" stroke-linejoin="round"/><path d="M55 50h10" fill="none" stroke="#8c8068" stroke-width="1.5" stroke-linecap="round" stroke-linejoin="round"/><path d="M55 57h17" fill="none" stroke="#8c8068" stroke-width="1.5" stroke-linecap="round" stroke-linejoin="round"/><path d="M86 59h17" fill="none" stroke="#8c8068" stroke-width="1.5" stroke-linecap="round" stroke-linejoin="round"/><path d="M86 66h10" fill="none" stroke="#8c8068" stroke-width="1.5" stroke-linecap="round" stroke-linejoin="round"/><path d="M86 73h17" fill="none" stroke="#8c8068" stroke-width="1.5" stroke-linecap="round" stroke-linejoin="round"/><path d="M25 84h13m17 12h15m17 10h15" fill="none" stroke="#7c8170" stroke-width="3" stroke-linecap="round" stroke-linejoin="round"/></g><g class="sym-core symbol-core"></g></svg>