<svg xmlns="http://www.w3.org/2000/svg" class="sym" viewBox="0 0 128 128" aria-hidden="true" focusable="false"><defs><linearGradient id="fogobj-83-steel" x1="0" y1="0" x2=".85" y2="1"><stop stop-color="#e6e6c9"/><stop offset=".47" stop-color="#92a39b"/><stop offset="1" stop-color="#344d50"/></linearGradient><linearGradient id="fogobj-83-paper" x1="0" y1="0" x2=".85" y2="1"><stop stop-color="#fff0c9"/><stop offset=".47" stop-color="#e1d3ac"/><stop offset="1" stop-color="#b4a181"/></linearGradient><linearGradient id="fogobj-83-wood" x1="0" y1="0" x2=".85" y2="1"><stop stop-color="#e0b780"/><stop offset=".47" stop-color="#98714d"/><stop offset="1" stop-color="#513f31"/></linearGradient><linearGradient id="fogobj-83-soil" x1="0" y1="0" x2=".85" y2="1"><stop stop-color="#8b8470"/><stop offset=".47" stop-color="#504e42"/><stop offset="1" stop-color="#2c3938"/></linearGradient></defs><ellipse cx="66" cy="115" rx="41" ry="5" fill="#102b2c" opacity=".18"/><ellipse cx="66" cy="114" rx="29" ry="3" fill="#102b2c" opacity=".16"/><g class="sym-frame symbol-frame" stroke-linecap="round"><path d="M32 12h63v27l16 18v53H16V57l16-18Z" fill="url(#fogobj-83-wood)" stroke="#293c3c" stroke-width="1.8" stroke-linejoin="round"/><path d="M23 62h82v42H23Z" fill="url(#fogobj-83-soil)" stroke="#293c3c" stroke-width="1.8" stroke-linejoin="round"/><path d="M32 40h63M24 68h80M24 89h80M46 68v36m32-36v36" fill="none" stroke="#bd9b69" stroke-width="5" stroke-linecap="round" stroke-linejoin="round"/><rect x="47" y="21" width="32" height="11" rx="3" fill="url(#fogobj-83-paper)" stroke="#354746" stroke-width="1.8"/><ellipse cx="22" cy="58" rx="2.5" ry="2.5" fill="url(#fogobj-83-steel)" stroke="#354746" stroke-width="1.5"/><path d="M21 58h2" fill="none" stroke="#45443a" stroke-width="1" stroke-linecap="round" stroke-linejoin="round"/><ellipse cx="105" cy="58" rx="2.5" ry="2.5" fill="url(#fogobj-83-steel)" stroke="#354746" stroke-width="1.5"/><path d="M104 58h2" fill="none" stroke="#45443a" stroke-width="1" stroke-linecap="round" stroke-linejoin="round"/></g><g class="sym-core symbol-core"></g></svg>